# xmcd
#
# Track frame offsets: 
#        150
#        12652
#        25285
#        38747
#        51390
#        65230
#        76465
#        89205
#        100567
#        115402
#        129787
#        141610
#        156372
#        168347
#        183355
#        195710
#        207687
#        221517
#        233212
#        244332
#
# Disc length: 3424 seconds
#
# Revision: 0
# Processed by: cddbd v1.5.2PL0 Copyright (c) Steve Scherf et al.
# Submitted via: ExactAudioCopy v0.95b3
#
DISCID=320d5e14
DTITLE=Blind Blake - Blind Blake
DYEAR=1900
DGENRE=Blues
TTITLE0=1 - Come On Boys Let's Do That Messin' Around
TTITLE1=2 - Goodbye Mama Moan
TTITLE2=3 - Diddie Wa Diddie
TTITLE3=4 - Black Biting Bee Blues(leola Wilson,vcl)
TTITLE4=5 - Seaboard Stomp
TTITLE5=6 -  Bad Feeling Blues
TTITLE6=7 - Police Dog Blues
TTITLE7=8 - Let Your Love Come Down(bertha Henderson,vcl)
TTITLE8=9 - I Was Afraid Of That
TTITLE9=10 - Hey Hey Daddy Blues
TTITLE10=11 - Wilson Dam ( L.b.wilson,vcl)
TTITLE11=12 - Sweet Papa Low Down
TTITLE12=13 - Hard Pushing Papa
TTITLE13=14 - Itching Heel(irene Scruggs,vcl)
TTITLE14=15 - Poker Woman Blues
TTITLE15=16 - One Time Blues
TTITLE16=17 - That'll Never Happen No More
TTITLE17=18 - Down The Country Blues(l.b.wilson,vcl)
TTITLE18=19 - Playing Policy Blues
TTITLE19=20 - Black Dog Blues
EXTD=
EXTT0=
EXTT1=
EXTT2=
EXTT3=
EXTT4=
EXTT5=
EXTT6=
EXTT7=
EXTT8=
EXTT9=
EXTT10=
EXTT11=
EXTT12=
EXTT13=
EXTT14=
EXTT15=
EXTT16=
EXTT17=
EXTT18=
EXTT19=
PLAYORDER=
